<svg width="147" height="160" viewBox="0 0 147 160" fill="none" xmlns="http://www.w3.org/2000/svg">
<path d="M50.5993 13.0679C60.8221 -4.3558 86.0129 -4.35579 96.2353 13.0679L96.6065 13.7007C101.323 21.7388 109.92 26.7025 119.239 26.7678L119.974 26.7729C140.175 26.9144 152.77 48.73 142.791 66.2951L142.429 66.933C137.826 75.0364 137.826 84.9641 142.429 93.0673L142.791 93.7049C152.77 111.271 140.175 133.086 119.974 133.227L119.239 133.232C109.92 133.298 101.323 138.262 96.6065 146.299L96.2353 146.932C86.0129 164.356 60.8221 164.356 50.5993 146.932L50.228 146.299C45.5118 138.262 36.9143 133.298 27.5951 133.232L26.8614 133.227C6.66062 133.086 -5.9346 111.271 4.04326 93.7049L4.40566 93.0673C9.00878 84.9641 9.00878 75.0364 4.40566 66.933L4.04326 66.2951C-5.9346 48.73 6.66062 26.9144 26.8614 26.7729L27.5951 26.7678C36.9144 26.7025 45.5118 21.7388 50.228 13.7007L50.5993 13.0679Z" fill="url(#paint0_linear_62_64)"/>
<defs>
<linearGradient id="paint0_linear_62_64" x1="-9.64728" y1="8.00012" x2="146.353" y2="160" gradientUnits="userSpaceOnUse">
<stop stop-color="#95C5FF"/>
<stop offset="1" stop-color="#07BA57"/>
</linearGradient>
</defs>
</svg>
