<svg width="161" height="160" viewBox="0 0 161 160" fill="none" xmlns="http://www.w3.org/2000/svg">
<path d="M78.8043 1.47723C79.1436 -0.492256 81.9661 -0.492242 82.3053 1.47724L86.0453 23.1845C86.3437 24.9152 88.6981 25.2132 89.4165 23.6112L98.4261 3.51773C99.2437 1.69466 101.977 2.39792 101.817 4.39008L100.052 26.3472C99.9109 28.0978 102.117 28.9731 103.211 27.6004L116.925 10.3832C118.169 8.82116 120.643 10.1836 119.993 12.0732L112.833 32.9005C112.262 34.561 114.182 35.9586 115.582 34.9015L133.139 21.6425C134.732 20.4396 136.789 22.3754 135.691 24.0438L123.586 42.4327C122.621 43.8988 124.134 45.7308 125.752 45.0557L146.048 36.588C147.89 35.8198 149.403 38.2075 147.924 39.5498L131.636 54.3448C130.337 55.5244 131.348 57.6758 133.083 57.4251L154.843 54.2807C156.817 53.9954 157.69 56.685 155.925 57.6169L136.476 67.8884C134.925 68.7072 135.37 71.0428 137.112 71.2324L158.97 73.6088C160.953 73.8245 161.13 76.6468 159.19 77.1098L137.802 82.2121C136.096 82.6193 135.948 84.9921 137.588 85.6097L158.169 93.3577C160.036 94.0609 159.508 96.8385 157.513 96.8041L135.531 96.4169C133.778 96.3857 133.045 98.6473 134.481 99.6545L152.492 112.287C154.126 113.434 152.924 115.992 151.001 115.461L129.806 109.609C128.116 109.143 126.844 111.15 127.985 112.483L142.295 129.207C143.593 130.725 141.794 132.903 140.063 131.91L120.986 120.96C119.464 120.087 117.735 121.715 118.509 123.291L128.218 143.055C129.099 144.848 126.816 146.51 125.386 145.117L109.625 129.758C108.369 128.533 106.289 129.679 106.648 131.398L111.147 152.959C111.555 154.916 108.93 155.957 107.892 154.251L96.4389 135.447C95.5253 133.948 93.2269 134.539 93.1477 136.294L92.1525 158.3C92.0629 160.296 89.2621 160.651 88.6797 158.739L82.2541 137.673C81.7413 135.994 79.3683 135.994 78.856 137.673L72.4304 158.739C71.8474 160.651 69.0472 160.296 68.9569 158.3L67.9621 136.294C67.8828 134.539 65.5842 133.948 64.6711 135.447L53.2184 154.251C52.1793 155.957 49.5551 154.916 49.9632 152.959L54.4617 131.398C54.8203 129.679 52.7407 128.533 51.4843 129.758L35.7241 145.117C34.2942 146.51 32.0107 144.848 32.8917 143.055L42.6008 123.291C43.3749 121.715 41.6449 120.087 40.1239 120.96L21.0467 131.91C19.3158 132.903 17.5167 130.725 18.815 129.207L33.1247 112.483C34.2656 111.15 32.994 109.143 31.3041 109.609L10.1083 115.461C8.18525 115.992 6.98351 113.434 8.61762 112.287L26.6288 99.6545C28.0648 98.6473 27.3315 96.3857 25.5789 96.4169L3.59645 96.8041C1.602 96.8385 1.07311 94.0609 2.9404 93.3577L23.5213 85.6097C25.1622 84.9921 25.0131 82.6193 23.3079 82.2121L1.9201 77.1098C-0.0204095 76.6468 0.15683 73.8245 2.13995 73.6088L23.9975 71.2324C25.7401 71.0428 26.1847 68.7072 24.6341 67.8884L5.18469 57.6169C3.42006 56.6849 4.29227 53.9954 6.2666 54.2807L28.0273 57.4251C29.7622 57.6758 30.7727 55.5244 29.4739 54.3448L13.1851 39.5498C11.7072 38.2075 13.2195 35.8198 15.0611 36.588L35.3576 45.0557C36.9759 45.7308 38.4885 43.8988 37.5235 42.4327L25.4186 24.0438C24.3203 22.3754 26.3778 20.4396 27.9707 21.6425L45.5279 34.9015C46.9277 35.9586 48.8475 34.561 48.2767 32.9005L41.1164 12.0732C40.4668 10.1836 42.9402 8.82116 44.1845 10.3832L57.899 27.6004C58.9924 28.9731 61.1989 28.0977 61.0582 26.3472L59.2924 4.39007C59.1322 2.39791 61.866 1.69465 62.6835 3.51771L71.6937 23.6112C72.412 25.2132 74.7665 24.9152 75.0647 23.1845L78.8043 1.47723Z" fill="url(#paint0_linear_62_56)"/>
<defs>
<linearGradient id="paint0_linear_62_56" x1="80.555" y1="0.00012207" x2="80.555" y2="160" gradientUnits="userSpaceOnUse">
<stop stop-color="#FFC482"/>
<stop offset="1" stop-color="#FF9825"/>
</linearGradient>
</defs>
</svg>
