<svg width="156" height="156" viewBox="0 0 156 156" fill="none" xmlns="http://www.w3.org/2000/svg">
<path d="M72.7211 2.0097C75.6646 -0.390927 79.8902 -0.390927 82.8334 2.0097L89.1798 7.18586C91.1774 8.8145 93.8366 9.38154 96.3238 8.70914L104.209 6.57802C107.87 5.58835 111.723 7.30586 113.435 10.6905L117.161 18.0582C118.321 20.351 120.51 21.9473 123.048 22.3493L131.151 23.6331C134.885 24.2246 137.695 27.3491 137.889 31.1245L138.315 39.4366C138.446 41.9923 139.793 44.3311 141.937 45.7285L148.869 50.2475C152.026 52.3056 153.319 56.2885 151.972 59.8087L148.989 67.6031C148.077 69.9875 148.357 72.6643 149.744 74.8079L154.272 81.8051C156.317 84.9675 155.881 89.1283 153.222 91.7971L147.358 97.6843C145.555 99.4947 144.725 102.057 145.125 104.581L146.429 112.82C147.019 116.547 144.924 120.18 141.402 121.537L133.714 124.497C131.321 125.419 129.515 127.431 128.857 129.909L126.728 137.923C125.756 141.584 122.35 144.061 118.569 143.859L110.401 143.422C107.831 143.284 105.352 144.391 103.739 146.397L98.5886 152.803C96.2094 155.763 92.0782 156.642 88.6998 154.907L81.431 151.175C79.1374 149.999 76.4173 149.999 74.1239 151.175L66.8546 154.907C63.4768 156.642 59.3455 155.763 56.9663 152.803L51.8158 146.397C50.2031 144.391 47.7238 143.284 45.1536 143.422L36.9863 143.859C33.2046 144.061 29.7991 141.584 28.8269 137.923L26.6979 129.909C26.0397 127.431 24.2335 125.419 21.8407 124.497L14.1527 121.537C10.6307 120.18 8.53555 116.547 9.12579 112.82L10.4303 104.581C10.8299 102.057 9.99987 99.4947 8.19659 97.6843L2.33232 91.7971C-0.325708 89.1283 -0.76254 84.9675 1.28337 81.8051L5.81059 74.8079C7.19755 72.6643 7.47795 69.9875 6.56547 67.6031L3.58268 59.8087C2.23559 56.2885 3.52824 52.3056 6.68571 50.2475L13.6185 45.7285C15.7623 44.3311 17.1083 41.9923 17.2394 39.4366L17.6659 31.1245C17.8597 27.3491 20.6698 24.2246 24.4036 23.6331L32.5068 22.3493C35.0444 21.9473 37.2345 20.351 38.394 18.0582L42.12 10.6905C43.8317 7.30586 47.6849 5.58835 51.3464 6.57802L59.2309 8.70914C61.7185 9.38154 64.3777 8.8145 66.3746 7.18586L72.7211 2.0097Z" fill="url(#paint0_linear_62_52)"/>
<defs>
<linearGradient id="paint0_linear_62_52" x1="77.7775" y1="0.209229" x2="77.7775" y2="155.791" gradientUnits="userSpaceOnUse">
<stop stop-color="#F56C5D"/>
<stop offset="1" stop-color="#FFC482"/>
</linearGradient>
</defs>
</svg>
