<svg width="161" height="160" viewBox="0 0 161 160" fill="none" xmlns="http://www.w3.org/2000/svg">
<path fill-rule="evenodd" clip-rule="evenodd" d="M80.2773 146.969C85.7068 153.485 91.1356 160 101.994 160C126.989 160 134.209 126.755 134.219 101.725C134.219 90.8673 140.734 85.4385 147.25 80.0097C153.766 74.5805 160.282 69.1517 160.282 58.2941C160.282 33.2912 126.989 26.062 102.003 26.062C91.1452 26.062 85.7156 19.5466 80.2868 13.0311C74.8575 6.5156 69.4284 0.00012207 58.5701 0.00012207C33.5658 0.00012207 26.3362 33.2912 26.3362 58.2757C26.3362 69.1333 19.8227 74.5621 13.3091 79.9909C6.79555 85.4201 0.281982 90.8489 0.281982 101.707C0.281982 126.709 33.5658 133.939 58.5609 133.939C69.4192 133.939 74.8483 140.454 80.2773 146.969Z" fill="url(#paint0_linear_62_71)"/>
<defs>
<linearGradient id="paint0_linear_62_71" x1="80.282" y1="0.00012207" x2="80.282" y2="160" gradientUnits="userSpaceOnUse">
<stop stop-color="#2E8CFF"/>
<stop offset="1" stop-color="#943CF2"/>
</linearGradient>
</defs>
</svg>
